<svg width="200" height="200" viewBox="0 0 200 200" fill="none" xmlns="http://www.w3.org/2000/svg">
<path d="M59.5224 137L59.0468 136.978C48.4442 136.481 40 127.726 40 117C40 105.954 48.9543 97 60 97C60.9839 97 61.9507 97.071 62.8955 97.2079L63.9896 97.3665L64.038 96.2621C64.9468 75.5298 82.0433 59 103 59C121.871 59 137.614 72.4042 141.222 90.2116L141.39 91.0401L142.235 91.0125C142.489 91.0042 142.744 91 143 91C155.703 91 166 101.297 166 114C166 126.703 155.703 137 143 137H59.5224Z" stroke="#6E6E6E" stroke-width="2"/>
</svg>
