<svg width="100" height="100" viewBox="0 0 100 100" fill="none" xmlns="http://www.w3.org/2000/svg">
<path d="M35.9972 38.279H23.9256C23.3898 38.279 22.9557 38.7133 22.9557 39.2489V78.0299C22.9557 78.5657 23.3898 78.9998 23.9256 78.9998H35.9972C36.533 78.9998 36.9671 78.5657 36.9671 78.0299V39.2489C36.9671 38.7133 36.533 38.279 35.9972 38.279Z" fill="black"/>
<path d="M29.9658 19C25.5734 19 22 22.5695 22 26.9571C22 31.3465 25.5734 34.9174 29.9658 34.9174C34.3547 34.9174 37.9252 31.3463 37.9252 26.9571C37.9254 22.5695 34.3547 19 29.9658 19Z" fill="black"/>
<path d="M66.7023 37.3151C61.8539 37.3151 58.2698 39.3994 56.0959 41.7676V39.2489C56.0959 38.7133 55.6618 38.279 55.1261 38.279H43.5653C43.0296 38.279 42.5955 38.7133 42.5955 39.2489V78.0299C42.5955 78.5657 43.0296 78.9998 43.5653 78.9998H55.6106C56.1464 78.9998 56.5805 78.5657 56.5805 78.0299V58.8423C56.5805 52.3765 58.3367 49.8576 62.8439 49.8576C67.7527 49.8576 68.1428 53.8957 68.1428 59.175V78.0301C68.1428 78.5659 68.5769 79 69.1126 79H81.1624C81.6981 79 82.1322 78.5659 82.1322 78.0301V56.758C82.1322 47.1437 80.299 37.3151 66.7023 37.3151Z" fill="black"/>
</svg>
