<svg width="200" height="200" viewBox="0 0 200 200" fill="none" xmlns="http://www.w3.org/2000/svg">
<path d="M145.819 70.5272C146.659 69.7694 147.392 68.9741 148 68.1448V136.715L147.985 136.93C147.835 139.059 146.56 141.204 144.13 143.262C141.704 145.317 138.215 147.204 133.865 148.806C125.17 152.008 113.222 154 100 154C86.7785 154 74.8302 152.008 66.1353 148.806C61.7849 147.204 58.2959 145.317 55.8701 143.262C53.4398 141.204 52.1647 139.059 52.0151 136.93L52 136.715V68.1448C52.6078 68.9741 53.3409 69.7694 54.1807 70.5272C56.784 72.8762 60.4948 74.9458 64.9952 76.6634C74.0028 80.1012 86.3791 82.2065 100 82.2065C113.621 82.2065 125.997 80.1012 135.005 76.6634C139.505 74.9458 143.216 72.8762 145.819 70.5272Z" stroke="#6E6E6E" stroke-width="2"/>
<path d="M148 64C148 66.2478 146.829 68.4991 144.474 70.6585C142.117 72.8186 138.653 74.8098 134.287 76.5027C125.561 79.886 113.44 82 100 82C86.5605 82 74.4386 79.886 65.7133 76.5027C61.3474 74.8098 57.8826 72.8186 55.5264 70.6585C53.1709 68.4991 52 66.2478 52 64C52 61.7522 53.1709 59.5009 55.5264 57.3415C57.8826 55.1814 61.3474 53.1902 65.7133 51.4973C74.4386 48.114 86.5605 46 100 46C113.44 46 125.561 48.114 134.287 51.4973C138.653 53.1902 142.117 55.1814 144.474 57.3415C146.829 59.5009 148 61.7522 148 64Z" stroke="#6E6E6E" stroke-width="2"/>
<path d="M148 114.5C148 124.993 127.062 132 100 132C72.938 132 52 123.493 52 113" stroke="#6E6E6E" stroke-width="2"/>
<path d="M148 89.5C148 99.9934 127.062 107 100 107C72.938 107 52 98.4934 52 88" stroke="#6E6E6E" stroke-width="2"/>
</svg>
