<svg xmlns="http://www.w3.org/2000/svg" width="100" height="100" fill="none" class="SocialIcon" viewBox="0 0 100 100">
    <path fill="black" d="M82.2431 45.3847C82.5474 43.4594 82.7372 41.3482 82.785 38.981C82.7667 28.8305 77.9076 25.2388 76.9727 23.5549C78.3496 15.864 76.7446 12.3657 75.9982 11.1681C73.2449 10.1908 66.4192 13.6904 62.6897 16.1539C56.6091 14.374 43.759 14.5477 38.94 16.6146C30.0487 10.248 25.3461 11.2188 25.3461 11.2188C25.3461 11.2188 22.3059 16.6705 24.5424 24.646C21.617 28.3739 19.4365 31.0096 19.4365 38.0008C19.4365 39.6752 19.5405 41.2574 19.717 42.7797C22.2363 56.0265 32.7328 61.7413 43.0433 62.7268C41.4918 63.9057 39.6291 66.1367 39.3714 68.7219C37.4219 69.9824 33.5003 70.399 30.4509 69.4403C26.1781 68.0902 24.5424 59.629 18.1438 60.836C16.7593 61.095 17.0345 62.0082 18.2334 62.7867C20.1828 64.0511 22.0188 65.6229 23.4339 68.9863C24.5208 71.5685 26.8069 76.179 34.0345 76.179C36.9038 76.179 38.9134 75.8399 38.9134 75.8399C38.9134 75.8399 38.9681 82.4199 38.9681 84.9863C38.9681 87.9396 34.9823 88.7689 34.9823 90.1857C34.9823 90.7492 36.3015 90.8027 37.3617 90.8027C39.4569 90.8027 43.8162 89.0575 43.8162 85.9878C43.8162 83.5486 43.8551 75.3516 43.8551 73.9161C43.8551 70.7795 45.536 69.7809 45.536 69.7809C45.536 69.7809 45.7417 86.5243 45.1315 88.769C44.4158 91.4089 43.1194 91.0338 43.1194 92.2086C43.1194 93.9618 48.3601 92.6373 50.0984 88.7997C51.4432 85.8023 50.841 69.3829 50.841 69.3829L52.243 69.3524C52.243 69.3524 52.2591 76.8723 52.2108 80.3078C52.1602 83.8661 51.7931 88.3645 53.9066 90.4876C55.2938 91.8839 59.5438 94.3341 59.5438 92.095C59.5438 90.7974 56.5676 89.725 56.5676 86.2094V70.0141C58.3757 70.0141 58.7493 75.3376 58.7493 75.3376L59.4011 85.2278C59.4011 85.2278 58.9683 88.8369 63.2998 90.343C64.8289 90.8786 68.1001 91.0242 68.2534 90.1253C68.4071 89.2241 64.3146 87.8915 64.2757 85.0981C64.2546 83.3969 64.3519 82.4011 64.3519 75.0011C64.3519 67.6052 63.3584 64.8692 59.8962 62.6889C69.9362 61.6585 80.3645 57.1747 82.2431 45.3847Z"/>
</svg>
